<?xml version="1.0" encoding="UTF-8"?>
<svg width="100px" height="22px" viewBox="0 0 100 22" version="1.1" xmlns="http://www.w3.org/2000/svg" xmlns:xlink="http://www.w3.org/1999/xlink" xmlns:sketch="http://www.bohemiancoding.com/sketch/ns">
    <!-- Generator: Sketch 3.2.2 (9983) - http://www.bohemiancoding.com/sketch -->
    <title>g4208</title>
    <desc>Created with Sketch.</desc>
    <defs></defs>
    <g id="Page-1" stroke="none" stroke-width="1" fill="none" fill-rule="evenodd" sketch:type="MSPage">
        <g id="logo" sketch:type="MSLayerGroup" transform="translate(-2.000000, -574.000000)" fill="#FFFFFF">
            <g id="g4208" transform="translate(0.879000, 573.959667)" sketch:type="MSShapeGroup">
                <path d="M93.040869,20.933046 L98.4052141,20.933046 L101.120998,18.2172623 L101.120998,12.8663616 L95.7700972,12.8663616 L93.040869,15.5821454 L93.040869,20.933046 Z" id="polygon4210"></path>
                <g id="g4212" transform="translate(1.000000, 0.000000)">
                    <path d="M0.121000266,10.7152458 C0.121000266,16.6711478 3.89889746,20.9464905 10.1236889,20.9464905 L19.5751541,20.9464905 L19.5751541,15.5955898 L10.1236889,15.5955898 C6.97768201,15.5821454 5.4315675,13.3638072 5.4315675,10.7152458 C5.4315675,8.0666844 6.97768201,5.88867961 10.1236889,5.86179066 L19.5751541,5.86179066 L19.5751541,0.524334486 L10.1236889,0.524334486 C3.88545299,0.510890012 0.121000266,4.74589932 0.121000266,10.7152458 L0.121000266,10.7152458 Z" id="path4214"></path>
                    <path d="M39.7015317,11.62947 C39.7015317,14.7754769 37.4831935,16.4560362 34.8346321,16.4560362 C32.1860708,16.4560362 30.008066,14.7754769 30.008066,11.62947 L30.008066,0.510890012 L24.6437208,0.510890012 L24.6437208,11.62947 C24.6437208,17.8542615 28.8787302,21.6187142 34.8346321,21.6187142 C40.7905341,21.6187142 45.0658768,17.840817 45.0658768,11.62947 L45.0658768,0.510890012 L39.7015317,0.510890012 L39.7015317,11.62947 L39.7015317,11.62947 Z" id="path4216"></path>
                    <path d="M76.5125015,0.510890012 C70.2877101,0.510890012 66.5098129,4.74589932 66.5098129,10.7018013 C66.5098129,16.6577033 70.2877101,20.933046 76.5125015,20.933046 L78.7173953,20.933046 L78.7173953,15.5955898 L76.5125015,15.5955898 C73.3664946,15.5821454 71.8203801,13.3638072 71.8203801,10.7152458 C71.8203801,8.0666844 73.3664946,5.88867961 76.5125015,5.86179066 L81.5272903,5.86179066 L81.5272903,12.8529171 L81.5272903,15.5955898 L81.5272903,20.9464905 L86.8916355,20.9464905 L86.8916355,20.6372676 L86.8916355,15.5955898 L86.8916355,5.86179066 L86.8916355,1.45200319 L86.8916355,0.510890012 L76.5125015,0.510890012 L76.5125015,0.510890012 Z" id="path4218"></path>
                    <path d="M50.147888,10.2312447 L50.147888,20.933046 L55.4450108,20.933046 L55.4450108,10.2312447 C55.4450108,7.58268334 56.9911253,5.40467855 60.1371322,5.3777896 L64.0091407,5.3777896 L64.0091407,0.040333422 L60.1371322,0.040333422 C53.9123407,0.040333422 50.147888,4.27534273 50.147888,10.2312447 L50.147888,10.2312447 Z" id="path4220"></path>
                </g>
            </g>
        </g>
    </g>
</svg>